<svg xmlns="http://www.w3.org/2000/svg" xmlns:xlink="http://www.w3.org/1999/xlink" width="1200" height="800" viewBox="0 0 1200 800"><defs><clipPath id="clip-Custom_Size_2"><rect width="1200" height="800"></rect></clipPath></defs><g id="Custom_Size_2" data-name="Custom Size &#x2013; 2" clip-path="url(#clip-Custom_Size_2)"><rect width="1200" height="800" fill="#fff"></rect><g id="calculator" transform="translate(360 160)"><path id="Path_411" data-name="Path 411" d="M168,64H112V8H64V64H8v48H64v56h48V112h56Z" fill="#e9686a"></path><path id="Path_412" data-name="Path 412" d="M472,64v48H312V64Z" fill="#32b1cc"></path><g id="Group_401" data-name="Group 401"><path id="Path_413" data-name="Path 413" d="M472,352v48H312V352Z" fill="#55b56a"></path><circle id="Ellipse_1" data-name="Ellipse 1" cx="24" cy="24" r="24" transform="translate(368 280)" fill="#55b56a"></circle><circle id="Ellipse_2" data-name="Ellipse 2" cx="24" cy="24" r="24" transform="translate(368 424)" fill="#55b56a"></circle></g><path id="Path_414" data-name="Path 414" d="M392,232H248V88H232V232H88v16H232V392h16V248H392Z" fill="#195c85"></path><path id="Path_415" data-name="Path 415" d="M176,328l-40-40L96,328,56,288,16,327.1,56,368,16,408l40,40,40-40,40,40,40-40-40-40Z" fill="#f49e21"></path><path id="Path_416" data-name="Path 416" d="M56,176h64V120h56V56H120V0H56V56H0v64H56ZM16,104V72H72V16h32V72h56v32H104v56H72V104Z"></path><path id="Path_417" data-name="Path 417" d="M304,120H480V56H304Zm16-48H464v32H320Z"></path><path id="Path_418" data-name="Path 418" d="M304,408H480V344H304Zm16-48H464v32H320Z"></path><path id="Path_419" data-name="Path 419" d="M360,304a32,32,0,1,0,32-32A32,32,0,0,0,360,304Zm48,0a16,16,0,1,1-16-16A16,16,0,0,1,408,304Z"></path><path id="Path_420" data-name="Path 420" d="M424,448a32,32,0,1,0-32,32A32,32,0,0,0,424,448Zm-48,0a16,16,0,1,1,16,16A16,16,0,0,1,376,448Z"></path><path id="Path_421" data-name="Path 421" d="M232,88V232H88v16H232V392h16V248H392V232H248V88Z"></path><path id="Path_422" data-name="Path 422" d="M56,459.312l40-40,40,40L187.312,408l-40-40,40-40L136,276.688l-40,40L56.064,276.752,4.688,326.976l40.064,40.96L4.688,408ZM27.312,327.2l28.624-28L96,339.312l40-40L164.688,328l-40,40,40,40L136,436.688l-40-40-40,40L27.312,408l39.936-39.936Z"></path></g></g></svg>